<svg xmlns="http://www.w3.org/2000/svg" width="106.277" height="20" viewBox="0 0 106.277 20"><g transform="translate(-100.912 -100.154)"><path d="M293.846,148.42a5.926,5.926,0,0,1,4.389,1.707,6.643,6.643,0,0,1,1.7,4.895v8.948h-1.891v-8.726a5.352,5.352,0,0,0-1.234-3.8,4.338,4.338,0,0,0-3.321-1.315,4.472,4.472,0,0,0-3.454,1.4,5.861,5.861,0,0,0-1.29,4.11v8.334h-1.919V148.7h1.919v2.6a4.847,4.847,0,0,1,2.057-2.125,6.1,6.1,0,0,1,3.045-.757Zm-17.47,14.066a5.63,5.63,0,0,0,2.706-.67,5.185,5.185,0,0,0,2.006-2.071,7.878,7.878,0,0,0,.026-6.8,4.949,4.949,0,0,0-2-2.069,5.6,5.6,0,0,0-5.416,0,4.951,4.951,0,0,0-2,2.069,7.113,7.113,0,0,0-.73,3.383,7.277,7.277,0,0,0,.718,3.4,5.241,5.241,0,0,0,1.978,2.071,5.634,5.634,0,0,0,2.721.677Zm0,1.707a7.494,7.494,0,0,1-3.763-.953,7.105,7.105,0,0,1-2.639-2.739,8.766,8.766,0,0,1-.948-4.168,8.421,8.421,0,0,1,.963-4.138,6.842,6.842,0,0,1,2.655-2.741,7.727,7.727,0,0,1,7.527,0,6.6,6.6,0,0,1,2.652,2.741,8.389,8.389,0,0,1,.976,4.138,8.5,8.5,0,0,1-.976,4.14,6.949,6.949,0,0,1-2.68,2.767,7.639,7.639,0,0,1-3.766.953Zm-13.423-12.78a4.783,4.783,0,0,1,1.962-2.209,6.425,6.425,0,0,1,3.28-.785v2.038h-.531a4.96,4.96,0,0,0-3.421,1.146,4.9,4.9,0,0,0-1.29,3.822v8.53h-1.962V148.7h1.962Zm-10.173-1.062v9.478a2.721,2.721,0,0,0,.531,1.931,2.635,2.635,0,0,0,1.88.53h1.788v1.679h-2.1a4.36,4.36,0,0,1-3.084-.95,4.239,4.239,0,0,1-1.009-3.19v-9.478H248.65V148.7h2.133v-3.822h1.99V148.7h4.205v1.651Zm-24.8,3.822a10.733,10.733,0,0,1,1.2-5.137,9.313,9.313,0,0,1,13.5-3.164,8.749,8.749,0,0,1,3.234,4.642h-4.243a4.564,4.564,0,0,0-1.789-2.1,4.893,4.893,0,0,0-2.629-.7,5.185,5.185,0,0,0-2.867.808,5.356,5.356,0,0,0-1.952,2.242,7.969,7.969,0,0,0-.685,3.412,8.078,8.078,0,0,0,.685,3.411,5.525,5.525,0,0,0,1.947,2.265,5.319,5.319,0,0,0,2.867.785,4.895,4.895,0,0,0,2.629-.7,4.719,4.719,0,0,0,1.788-2.125H245.9a8.746,8.746,0,0,1-3.234,4.67,8.961,8.961,0,0,1-5.391,1.651,8.9,8.9,0,0,1-8.1-4.81,10.745,10.745,0,0,1-1.206-5.146Zm-1.1-9.723v3.159h-8.16v5.006h6.254v3.1h-6.254v8.25H214.8V144.451ZM210.4,163.97h-3.927l-8.888-13.4v13.4h-3.927V144.423h3.927l8.888,13.422V144.423H210.4Z" transform="translate(-92.745 -44.041)" fill="#fff"/></g></svg>